<svg xmlns="http://www.w3.org/2000/svg" viewBox="0 0 28 28" fill="none">
  <!-- Horseshoe crest in gold -->
  <path
    d="M14 2C8.48 2 4 6.48 4 12c0 3.5 1.8 6.58 4.5 8.37V26h2v-4.5c0-.28.22-.5.5-.5s.5.22.5.5V26h5v-4.5c0-.28.22-.5.5-.5s.5.22.5.5V26h2v-5.63C22.2 18.58 24 15.5 24 12c0-5.52-4.48-10-10-10z"
    fill="#D4AF37"
    opacity="0.9"
  />
  <path
    d="M14 5C10.13 5 7 8.13 7 12c0 2.39 1.19 4.5 3 5.78V21h1.5v-2.5c0-.83.67-1.5 1.5-1.5s1.5.67 1.5 1.5V21h1v-2.5c0-.83.67-1.5 1.5-1.5s1.5.67 1.5 1.5V21H20v-3.22c1.81-1.28 3-3.39 3-5.78 0-3.87-3.13-7-7-7z"
    fill="#F5F1ED"
    opacity="0.25"
  />
  <!-- Star accent at top -->
  <circle cx="14" cy="8" r="1.5" fill="#F5F1ED" opacity="0.6"/>
</svg>
